<svg version="1.2" baseProfile="tiny" viewBox="0 0 18.000 12.375" xmlns:xlink="http://www.w3.org/1999/xlink" xmlns="http://www.w3.org/2000/svg">
<path style="fill:#ffffff;" d="M14.272,6.218c1.87,0,3.422,2.661,3.728,6.157h-4.329   l-0.003-0.05c-0.146-1.665-0.572-3.486-1.422-4.955C12.832,6.643,13.527,6.218,14.272,6.218L14.272,6.218z M14.272,5.772   c1.217,0,2.205-1.052,2.205-2.349c0-1.296-0.988-2.344-2.205-2.344c-1.218,0-2.206,1.048-2.206,2.344   C12.066,4.721,13.055,5.772,14.272,5.772L14.272,5.772z M9.001,5.632c-2.049,0-3.75,2.917-4.084,6.743h8.167   C12.75,8.549,11.048,5.632,9.001,5.632L9.001,5.632z M9.001,5.142c1.334,0,2.415-1.151,2.415-2.57C11.416,1.151,10.335,0,9.001,0   C7.666,0,6.584,1.151,6.584,2.572C6.584,3.99,7.666,5.142,9.001,5.142L9.001,5.142z M3.728,6.218c0.746,0,1.44,0.424,2.026,1.152   c-0.85,1.468-1.275,3.29-1.42,4.955l-0.004,0.05H0C0.306,8.879,1.859,6.218,3.728,6.218L3.728,6.218z M3.728,5.772   c-1.218,0-2.204-1.052-2.204-2.349c0-1.296,0.986-2.344,2.204-2.344c1.219,0,2.206,1.048,2.206,2.344   C5.934,4.721,4.947,5.772,3.728,5.772z"/>
</svg>